<svg width="20" height="24" viewBox="0 0 21 25" fill="none" xmlns="http://www.w3.org/2000/svg">
<path fill-rule="evenodd" clip-rule="evenodd" d="M1.4331 0.663769C1.71568 0.503845 2.03517 0.423364 2.35861 0.430627C2.68136 0.437875 2.99638 0.532235 3.27131 0.703993C3.27189 0.704358 3.27248 0.704723 3.27306 0.705088L19.6195 10.855C19.8868 11.017 20.1083 11.2465 20.2626 11.5211C20.4182 11.798 20.5 12.1114 20.5 12.4302C20.5 12.749 20.4182 13.0623 20.2626 13.3393C20.1083 13.6139 19.8868 13.8433 19.6195 14.0054L3.27306 24.1553C3.27238 24.1557 3.2717 24.1561 3.27103 24.1565C2.99616 24.3282 2.68125 24.4225 2.35861 24.4297C2.03517 24.437 1.71568 24.3565 1.4331 24.1966C1.15051 24.0367 0.915063 23.8031 0.751039 23.52C0.587015 23.2368 0.500356 22.9144 0.5 22.5859V2.27445C0.500356 1.94597 0.587015 1.62353 0.751039 1.3404C0.915063 1.05727 1.15051 0.823693 1.4331 0.663769ZM19.15 11.6455L18.6811 12.4239L18.687 12.4203C18.6854 12.4213 18.684 12.4228 18.6831 12.4245C18.6821 12.4262 18.6816 12.4282 18.6816 12.4302C18.6816 12.4322 18.6821 12.4342 18.6831 12.4359C18.6841 12.4376 18.6855 12.4391 18.6872 12.4401L19.15 11.6455ZM18.671 12.4302L2.3184 2.2765L2.3184 22.5839L2.32139 22.582L18.671 12.4302Z" fill="#E1E1E6"/>
</svg>
